<svg height="512pt" stroke="none" fill="#ffffff" viewBox="0 0 512 512" width="512pt" xmlns="http://www.w3.org/2000/svg"><path d="m256 0c-141.160156 0-256 114.839844-256 256s114.839844 256 256 256 256-114.839844 256-256-114.839844-256-256-256zm0 482c-124.617188 0-226-101.382812-226-226s101.382812-226 226-226 226 101.382812 226 226-101.382812 226-226 226zm0 0"/><path d="m431.523438 290.695312c-4.078126-29.496093-21.167969-54.929687-46.890626-69.78125-13.832031-7.976562-28.847656-12.097656-43.792968-12.710937 6.953125-13.253906 10.894531-28.328125 10.894531-44.304687 0-29.707032-13.46875-57.238282-36.949219-75.535157-6.535156-5.09375-15.960937-3.921875-21.050781 2.609375-5.09375 6.535156-3.921875 15.960938 2.609375 21.054688 16.136719 12.570312 25.390625 31.476562 25.390625 51.871094 0 7.246093-1.199219 14.214843-3.375 20.742187-16.683594-14.582031-38.507813-23.425781-62.359375-23.425781-23.824219 0-45.621094 8.839844-62.289062 23.410156-2.171876-6.519531-3.367188-13.484375-3.367188-20.726562 0-20.445313 9.246094-39.34375 25.367188-51.851563 6.542968-5.082031 7.730468-14.503906 2.652343-21.046875-5.074219-6.546875-14.5-7.734375-21.046875-2.65625-23.496094 18.230469-36.972656 45.769531-36.972656 75.554688 0 15.976562 3.9375 31.046874 10.882812 44.304687-14.953124.605469-29.96875 4.726563-43.792968 12.714844-25.660156 14.816406-42.773438 40.234375-46.953125 69.730469-1.164063 8.199218 4.542969 15.792968 12.746093 16.953124 8.214844 1.164063 15.792969-4.542968 16.957032-12.746093 2.875-20.304688 14.632812-37.785157 32.257812-47.960938 6.460938-3.734375 13.304688-6.21875 20.253906-7.570312-.964843 5.414062-1.46875 10.988281-1.46875 16.675781 0 41.714844 27.085938 77.222656 64.589844 89.855469-4.824218 5.8125-10.730468 10.878906-17.640625 14.871093-17.683593 10.203126-38.691406 11.640626-57.636719 3.949219-7.675781-3.121093-16.421874.578125-19.539062 8.25-3.117188 7.675781.578125 16.425781 8.253906 19.542969 44.316406 18 79.839844-3.40625 83.921875-5.761719 13.777344-7.960937 24.828125-18.859375 32.824219-31.449219 8.164062 12.851563 19.347656 23.632813 32.910156 31.453126 4.179688 2.414062 39.585938 23.6875 83.890625 5.773437 7.679688-3.101563 11.390625-11.847656 8.285157-19.527344-3.105469-7.679687-11.851563-11.386719-19.527344-8.285156-18.992188 7.679687-40.003906 6.238281-57.660156-3.949219-6.835938-3.9375-12.785157-8.980468-17.6875-14.867187 37.53125-12.636719 64.636718-48.140625 64.636718-89.855469 0-5.6875-.503906-11.253906-1.46875-16.667969 6.949219 1.351563 13.792969 3.835938 20.261719 7.566407 17.640625 10.183593 29.363281 27.648437 32.167969 47.910156 1.132812 8.203125 8.703125 13.9375 16.914062 12.800781 8.207032-1.132813 13.9375-8.707031 12.800782-16.914063zm-175.523438-99.480468c18.070312 0 34.429688 7.425781 46.199219 19.378906-11.882813 11.75-28.207031 19.023438-46.199219 19.023438-17.972656 0-34.277344-7.273438-46.144531-19.023438 11.757812-11.953125 28.097656-19.378906 46.144531-19.378906zm-64.769531 64.785156c0-5.304688.652343-10.460938 1.863281-15.398438 15.9375 4.488282 30.222656 14.921876 39.148438 30.347657 8.640624 14.984375 10.683593 31.988281 7.058593 47.644531-27.648437-7.390625-48.070312-32.644531-48.070312-62.59375zm81.507812 62.585938c-3.761719-16.273438-1.285156-33.101563 7.101563-47.636719 8.902344-15.441407 23.1875-25.882813 39.140625-30.359375 1.214843 4.941406 1.871093 10.097656 1.871093 15.410156 0 29.941406-20.441406 55.191406-48.113281 62.585938zm0 0"/></svg>
