<svg height="512pt" viewBox="0 -32 512 511" width="512pt" xmlns="http://www.w3.org/2000/svg"><path d="m507.605469 197.691406c-5.855469-5.855468-15.355469-5.855468-21.210938 0l-7.371093 7.371094c-9.820313-114.4375-106.085938-204.5625-223.023438-204.5625-59.757812 0-115.964844 23.296875-158.269531 65.597656-5.855469 5.859375-5.855469 15.355469 0 21.214844 5.859375 5.859375 15.355469 5.855469 21.214843 0 36.636719-36.636719 85.3125-56.8125 137.054688-56.8125 99.691406 0 182.035156 75.640625 192.6875 172.539062l-5.347656-5.347656c-5.855469-5.855468-15.355469-5.855468-21.214844 0-5.855469 5.859375-5.855469 15.355469 0 21.214844l32.132812 32.132812c5.859376 5.859376 15.363282 5.855469 21.214844 0l32.132813-32.132812c5.859375-5.859375 5.859375-15.355469 0-21.214844zm0 0" fill="#ffffff"/><path d="m414.269531 361.421875c-5.855469-5.859375-15.355469-5.859375-21.214843 0-36.636719 36.632813-85.3125 56.8125-137.054688 56.8125-99.691406 0-182.035156-75.640625-192.6875-172.542969l5.347656 5.347656c5.855469 5.859376 15.355469 5.859376 21.210938 0 5.859375-5.855468 5.859375-15.355468 0-21.210937l-32.132813-32.136719c-5.855469-5.855468-15.359375-5.851562-21.210937 0l-32.132813 32.136719c-5.859375 5.855469-5.859375 15.355469 0 21.210937 5.855469 5.859376 15.355469 5.859376 21.210938 0l7.371093-7.367187c9.820313 114.433594 106.089844 204.5625 223.023438 204.5625 59.757812 0 115.964844-23.296875 158.269531-65.601563 5.855469-5.855468 5.855469-15.355468 0-21.210937zm0 0" fill="#ffffff"/><path d="m246.648438 178.164062-41.929688-72.617187c-4.175781-7.21875-13.371094-9.609375-20.488281-5.492187-21.832031 12.621093-39.980469 30.800781-52.472657 52.53125-12.617187 21.800781-19.289062 46.628906-19.289062 71.78125 0 8.277343 6.710938 15 15 15h83.851562c-1.589843-4.710938-2.449218-9.761719-2.449218-15 0-22.792969 16.257812-41.851563 37.777344-46.203126zm0 0" fill="#ffffff"/><path d="m380.328125 152.585938c-12.648437-21.859376-30.828125-40.03125-52.578125-52.539063-7.179688-4.132813-16.339844-1.660156-20.46875 5.5l-41.933594 72.617187c21.523438 4.351563 37.78125 23.410157 37.78125 46.203126 0 5.238281-.859375 10.289062-2.449218 15h83.851562c8.269531 0 14.96875-6.679688 15-14.941407.089844-25.121093-6.550781-49.960937-19.203125-71.839843zm0 0" fill="#ffffff"/><path d="m333.257812 328.1875-41.9375-72.652344c-8.640624 9.78125-21.269531 15.960938-35.320312 15.960938s-26.679688-6.179688-35.320312-15.960938l-41.941407 72.652344c-4.140625 7.167969-1.679687 16.339844 5.492188 20.488281 21.777343 12.570313 46.597656 19.21875 71.769531 19.21875 25.269531 0 50.089844-6.648437 71.789062-19.238281 7.160157-4.148438 9.601563-13.308594 5.46875-20.46875zm0 0" fill="#ffffff"/><path d="m256 207.234375c-9.449219 0-17.132812 7.683594-17.132812 17.132813 0 9.445312 7.683593 17.132812 17.132812 17.132812 9.445312 0 17.132812-7.6875 17.132812-17.132812 0-9.449219-7.683593-17.132813-17.132812-17.132813zm0 0" fill="#ffffff"/><path d="m273.132812 224.367188c0-9.449219-7.6875-17.132813-17.132812-17.132813v34.265625c9.449219 0 17.132812-7.6875 17.132812-17.132812zm0 0" fill="#ffffff"/><path d="m327.789062 348.65625c7.160157-4.148438 9.601563-13.308594 5.46875-20.46875l-41.9375-72.652344c-8.640624 9.78125-21.269531 15.960938-35.320312 15.960938v96.398437c25.269531 0 50.089844-6.648437 71.789062-19.238281zm0 0" fill="#ffffff"/><g fill="#ffffff"><path d="m448.6875 203.039062-5.347656-5.347656c-5.855469-5.855468-15.355469-5.855468-21.214844 0-5.855469 5.859375-5.855469 15.355469 0 21.214844l32.132812 32.132812c5.859376 5.859376 15.363282 5.855469 21.214844 0l32.132813-32.132812c5.859375-5.859375 5.859375-15.355469 0-21.214844-5.855469-5.855468-15.355469-5.855468-21.210938 0l-7.371093 7.371094c-9.820313-114.4375-106.085938-204.5625-223.023438-204.5625v30c99.691406 0 182.035156 75.640625 192.6875 172.539062zm0 0"/><path d="m414.269531 382.632812c5.855469-5.855468 5.855469-15.355468 0-21.210937-5.855469-5.859375-15.355469-5.859375-21.214843 0-36.636719 36.632813-85.3125 56.8125-137.054688 56.8125v30c59.757812 0 115.964844-23.296875 158.269531-65.601563zm0 0"/></g>
</svg>
